<?xml version="1.0" encoding="utf-8"?>
<!-- Generator: Adobe Illustrator 28.3.0, SVG Export Plug-In . SVG Version: 6.00 Build 0)  -->
<svg version="1.1" id="Layer_1" xmlns="http://www.w3.org/2000/svg" xmlns:xlink="http://www.w3.org/1999/xlink" x="0px" y="0px"
	 viewBox="0 0 128.62 57.38" style="enable-background:new 0 0 128.62 57.38;" xml:space="preserve">
<style type="text/css">
	.st0{fill:#FEC016;}
</style>
<g>
	<path class="st0" d="M20.42,2.15v4.1c0,8.11,6.57,14.68,14.68,14.68H20.42h-5.75C6.57,20.93,0,27.5,0,35.61v4.1h20.42V25.03
		c0,8.11,6.57,14.68,14.68,14.68h5.75V20.93V2.15H20.42z"/>
	<g>
		<path class="st0" d="M85.95,49.98c0-0.37,0.07-0.72,0.21-1.04c0.14-0.33,0.33-0.61,0.57-0.85c0.24-0.24,0.52-0.43,0.85-0.57
			c0.32-0.14,0.67-0.21,1.05-0.21c0.39,0,0.75,0.07,1.08,0.2s0.61,0.31,0.85,0.55s0.42,0.51,0.55,0.85s0.2,0.69,0.2,1.09
			c0,0.38-0.07,0.73-0.21,1.05c-0.14,0.32-0.33,0.61-0.57,0.85c-0.24,0.24-0.52,0.43-0.85,0.57c-0.32,0.14-0.67,0.21-1.05,0.21
			c-0.39,0-0.75-0.07-1.08-0.2s-0.61-0.31-0.85-0.55c-0.24-0.23-0.42-0.51-0.55-0.84C86.01,50.74,85.95,50.38,85.95,49.98z
			 M87.07,49.58c0,0.3,0.03,0.6,0.1,0.91c0.06,0.31,0.16,0.59,0.29,0.85s0.3,0.46,0.51,0.62s0.46,0.25,0.76,0.25
			c0.46,0,0.81-0.16,1.06-0.48c0.25-0.32,0.38-0.73,0.38-1.24c0-0.3-0.03-0.61-0.09-0.93c-0.06-0.32-0.16-0.62-0.29-0.89
			c-0.13-0.27-0.3-0.49-0.52-0.67c-0.21-0.18-0.47-0.26-0.79-0.26c-0.42,0-0.77,0.15-1.03,0.44S87.07,48.94,87.07,49.58z"/>
		<path class="st0" d="M93.43,52.51c-0.14,0-0.28,0-0.42,0.01s-0.27,0.01-0.39,0.02c-0.12,0.01-0.22,0.02-0.31,0.02
			s-0.14,0.01-0.17,0.01c0-0.01,0-0.04-0.01-0.08c-0.01-0.05-0.01-0.08-0.01-0.11c0-0.08,0.04-0.13,0.11-0.14
			c0.21-0.04,0.38-0.09,0.5-0.14s0.19-0.15,0.19-0.28v-3.26c0-0.24-0.04-0.41-0.13-0.52c-0.08-0.1-0.27-0.17-0.55-0.19
			c-0.1-0.02-0.16-0.07-0.16-0.17c0-0.04,0.01-0.09,0.02-0.16c0.1,0,0.25-0.01,0.44-0.02c0.19-0.01,0.34-0.03,0.46-0.04
			c0.19-0.03,0.35-0.07,0.5-0.1s0.25-0.05,0.32-0.05c0.11,0,0.17,0.06,0.17,0.18c0,0.11-0.01,0.25-0.04,0.4
			c-0.02,0.16-0.04,0.36-0.04,0.62v3.31c0,0.13,0.06,0.22,0.19,0.28s0.3,0.1,0.52,0.14c0.06,0.02,0.1,0.06,0.1,0.14
			c0,0.02,0,0.06-0.01,0.11c0,0.05-0.01,0.08-0.02,0.08c-0.02,0-0.08,0-0.16-0.01s-0.19-0.02-0.31-0.02
			c-0.12-0.01-0.25-0.01-0.39-0.02C93.7,52.51,93.56,52.51,93.43,52.51z M92.72,45.3c0-0.19,0.07-0.36,0.2-0.5s0.3-0.21,0.5-0.21
			c0.19,0,0.35,0.07,0.48,0.21s0.19,0.31,0.19,0.5c0,0.21-0.06,0.38-0.19,0.5s-0.29,0.19-0.48,0.19c-0.2,0-0.37-0.06-0.5-0.19
			S92.72,45.5,92.72,45.3z"/>
		<path class="st0" d="M98.04,52.57c-0.21-0.02-0.42-0.03-0.64-0.04c-0.22-0.01-0.43-0.02-0.65-0.02s-0.44,0.01-0.67,0.02
			c-0.23,0.01-0.44,0.03-0.64,0.04c-0.02-0.08-0.02-0.14-0.02-0.19c0-0.08,0.04-0.13,0.11-0.14c0.18-0.03,0.34-0.08,0.49-0.14
			c0.15-0.06,0.23-0.15,0.23-0.28v-6.46c0-0.26-0.05-0.43-0.15-0.52s-0.29-0.15-0.57-0.17c-0.1-0.02-0.16-0.07-0.16-0.17
			c0-0.05,0.01-0.1,0.02-0.17c0.1,0,0.25-0.01,0.43-0.02c0.18-0.01,0.35-0.03,0.5-0.04c0.19-0.02,0.35-0.06,0.5-0.1
			s0.25-0.06,0.32-0.06c0.07,0,0.12,0.02,0.15,0.05c0.02,0.03,0.04,0.08,0.04,0.13c0,0.14-0.01,0.29-0.04,0.47
			c-0.02,0.18-0.04,0.39-0.04,0.63v6.42c0,0.13,0.07,0.22,0.22,0.28c0.15,0.06,0.31,0.11,0.5,0.14c0.06,0.02,0.1,0.06,0.1,0.14
			C98.06,52.42,98.06,52.49,98.04,52.57z"/>
		<path class="st0" d="M109.42,52.41c0,0.02,0,0.05-0.01,0.09c0,0.04-0.01,0.09-0.03,0.13c-0.23-0.02-0.54-0.04-0.94-0.04
			c-0.11,0-0.23-0.01-0.36-0.03c-0.13-0.02-0.28-0.07-0.46-0.14s-0.39-0.2-0.63-0.36s-0.53-0.39-0.87-0.68
			c-0.34,0.38-0.72,0.69-1.13,0.92c-0.41,0.23-0.87,0.35-1.37,0.35c-0.31,0-0.6-0.04-0.87-0.11c-0.27-0.08-0.5-0.19-0.69-0.35
			c-0.19-0.16-0.34-0.36-0.45-0.61c-0.11-0.25-0.16-0.54-0.16-0.88c0-0.46,0.14-0.87,0.42-1.25c0.28-0.38,0.68-0.72,1.19-1.04
			c-0.21-0.21-0.38-0.4-0.5-0.58s-0.23-0.35-0.31-0.51c-0.08-0.16-0.13-0.32-0.16-0.48c-0.03-0.16-0.04-0.32-0.04-0.49
			c0-0.44,0.16-0.79,0.49-1.06c0.32-0.27,0.74-0.4,1.25-0.4c0.25,0,0.48,0.04,0.68,0.12s0.39,0.19,0.54,0.33
			c0.15,0.14,0.27,0.31,0.35,0.5c0.08,0.2,0.13,0.41,0.13,0.64c0,0.28-0.09,0.56-0.26,0.84s-0.47,0.56-0.91,0.85
			c0.43,0.44,0.82,0.83,1.18,1.18c0.35,0.35,0.67,0.65,0.95,0.92c0.15-0.21,0.29-0.42,0.42-0.65c0.13-0.22,0.24-0.43,0.33-0.63
			s0.16-0.38,0.22-0.54c0.05-0.16,0.08-0.29,0.08-0.38s-0.03-0.15-0.1-0.2s-0.2-0.09-0.41-0.13c-0.1-0.01-0.16-0.06-0.16-0.16
			c0-0.02,0-0.05,0.01-0.1c0-0.05,0.01-0.08,0.03-0.11c0.15,0.02,0.32,0.03,0.5,0.03c0.18,0,0.37,0.01,0.56,0.01
			c0.37,0,0.68-0.01,0.95-0.04c0.01,0.03,0.02,0.07,0.02,0.11s0.01,0.07,0.01,0.09c0,0.09-0.05,0.14-0.16,0.17
			c-0.11,0.02-0.2,0.05-0.28,0.07c-0.07,0.02-0.13,0.05-0.19,0.08c-0.05,0.04-0.1,0.09-0.16,0.16s-0.11,0.16-0.16,0.28
			c-0.18,0.38-0.36,0.75-0.56,1.13c-0.2,0.38-0.42,0.75-0.66,1.1c0.3,0.28,0.56,0.51,0.78,0.7c0.22,0.19,0.42,0.34,0.58,0.46
			c0.16,0.12,0.3,0.21,0.41,0.28c0.11,0.06,0.21,0.11,0.3,0.13c0.02,0.01,0.06,0.01,0.12,0.02c0.06,0,0.13,0.01,0.2,0.03
			c0.07,0.02,0.13,0.04,0.19,0.07C109.39,52.33,109.42,52.37,109.42,52.41z M103.33,48.72c-0.28,0.24-0.5,0.52-0.65,0.83
			c-0.15,0.31-0.23,0.64-0.23,0.97c0,0.29,0.05,0.53,0.15,0.71c0.1,0.19,0.22,0.34,0.37,0.44c0.15,0.11,0.31,0.18,0.47,0.23
			c0.17,0.04,0.32,0.07,0.46,0.07c0.34,0,0.65-0.07,0.94-0.2s0.6-0.36,0.93-0.69c-0.32-0.28-0.68-0.61-1.08-1
			C104.3,49.7,103.84,49.25,103.33,48.72z M104.03,47.92c0.23-0.21,0.4-0.43,0.49-0.67c0.1-0.24,0.14-0.46,0.14-0.67
			c0-0.38-0.08-0.68-0.24-0.89c-0.16-0.21-0.4-0.31-0.73-0.31c-0.21,0-0.38,0.07-0.52,0.2s-0.2,0.31-0.2,0.55
			c0,0.24,0.07,0.5,0.22,0.77C103.33,47.17,103.61,47.52,104.03,47.92z"/>
		<path class="st0" d="M112.96,52.26c-0.34-0.2-0.52-0.49-0.52-0.86c0-0.4,0.26-0.73,0.79-0.98c-0.22-0.14-0.4-0.32-0.53-0.55
			c-0.13-0.23-0.2-0.51-0.2-0.85c0-0.22,0.05-0.44,0.16-0.65s0.25-0.39,0.44-0.55c0.18-0.16,0.39-0.29,0.63-0.38
			c0.24-0.09,0.49-0.14,0.75-0.14c0.4,0,0.72,0.05,0.96,0.14c0.24,0.1,0.45,0.22,0.62,0.36l1.19-0.52c0.09,0.06,0.15,0.13,0.19,0.22
			s0.06,0.18,0.06,0.26c0,0.18-0.06,0.26-0.18,0.26l-0.43-0.01c-0.15,0-0.34,0.02-0.55,0.07c0.19,0.25,0.29,0.55,0.29,0.91
			c0,0.25-0.06,0.48-0.17,0.68s-0.26,0.39-0.46,0.53c-0.19,0.15-0.42,0.26-0.68,0.35c-0.26,0.08-0.54,0.13-0.84,0.13
			c-0.17,0-0.33-0.01-0.48-0.03c-0.15-0.02-0.3-0.05-0.43-0.1c-0.21,0.1-0.35,0.19-0.43,0.29c-0.08,0.1-0.12,0.19-0.12,0.28
			c0,0.06,0.02,0.13,0.06,0.19c0.04,0.06,0.11,0.11,0.22,0.16c0.11,0.04,0.26,0.08,0.46,0.11c0.2,0.03,0.45,0.04,0.75,0.04
			c0.36,0,0.7,0.03,1.02,0.08c0.32,0.06,0.6,0.15,0.85,0.28s0.44,0.3,0.58,0.5c0.14,0.21,0.21,0.46,0.21,0.76
			c0,0.33-0.07,0.62-0.2,0.89s-0.32,0.49-0.55,0.68c-0.24,0.19-0.52,0.33-0.85,0.43c-0.33,0.1-0.69,0.15-1.09,0.15
			c-0.75,0-1.34-0.14-1.76-0.41c-0.42-0.27-0.64-0.71-0.64-1.31c0-0.18,0.03-0.34,0.08-0.49c0.06-0.15,0.13-0.28,0.21-0.4
			s0.18-0.22,0.29-0.31C112.76,52.38,112.86,52.31,112.96,52.26z M113.24,52.4c-0.19,0.18-0.3,0.42-0.32,0.7
			c-0.01,0.06-0.01,0.13-0.01,0.19c0,0.06,0,0.13,0,0.2c0.01,0.17,0.05,0.34,0.13,0.5s0.2,0.32,0.35,0.44
			c0.15,0.13,0.34,0.23,0.56,0.31s0.48,0.12,0.78,0.12c0.55,0,0.95-0.12,1.21-0.37s0.38-0.55,0.38-0.91c0-0.15-0.03-0.29-0.1-0.42
			c-0.06-0.13-0.17-0.24-0.32-0.33c-0.15-0.09-0.35-0.16-0.6-0.22s-0.56-0.08-0.92-0.08c-0.21,0-0.41-0.01-0.61-0.04
			C113.57,52.5,113.4,52.46,113.24,52.4z M114.6,50.28c0.3,0,0.53-0.1,0.71-0.29c0.18-0.19,0.26-0.46,0.26-0.79
			c0-0.18-0.02-0.35-0.05-0.52c-0.04-0.17-0.1-0.33-0.19-0.47s-0.21-0.25-0.35-0.34c-0.15-0.09-0.33-0.13-0.56-0.13
			c-0.28,0-0.5,0.09-0.67,0.28c-0.16,0.18-0.25,0.44-0.25,0.76c0,0.18,0.02,0.37,0.05,0.55c0.04,0.18,0.1,0.34,0.18,0.49
			c0.08,0.14,0.2,0.26,0.34,0.35C114.22,50.23,114.39,50.28,114.6,50.28z"/>
		<path class="st0" d="M122.83,52.18c0.09,0,0.14,0.08,0.14,0.25c-0.21,0.14-0.47,0.22-0.79,0.22c-0.18,0-0.33-0.03-0.46-0.08
			c-0.13-0.05-0.24-0.12-0.33-0.21c-0.09-0.09-0.16-0.19-0.21-0.3c-0.05-0.11-0.08-0.23-0.1-0.35c-0.2,0.36-0.44,0.61-0.71,0.74
			c-0.28,0.13-0.59,0.2-0.95,0.2c-0.16,0-0.33-0.01-0.51-0.04c-0.18-0.03-0.35-0.09-0.51-0.17s-0.29-0.21-0.4-0.37
			c-0.1-0.16-0.16-0.37-0.16-0.64c0-0.3,0.07-0.55,0.21-0.75s0.32-0.37,0.54-0.5s0.46-0.24,0.72-0.32c0.26-0.08,0.51-0.15,0.75-0.2
			c0.14-0.02,0.26-0.05,0.38-0.08c0.12-0.03,0.22-0.06,0.31-0.09c0.11-0.03,0.18-0.08,0.21-0.13c0.03-0.06,0.04-0.16,0.04-0.32
			c0-0.38-0.07-0.69-0.22-0.93c-0.14-0.24-0.4-0.37-0.77-0.37c-0.14,0-0.25,0.02-0.35,0.05c-0.1,0.03-0.18,0.08-0.24,0.15
			c-0.06,0.07-0.12,0.16-0.17,0.27c-0.05,0.11-0.1,0.24-0.14,0.4c-0.02,0.09-0.08,0.15-0.16,0.19s-0.23,0.09-0.43,0.14
			c-0.05,0.02-0.11,0.03-0.18,0.05C118.28,49,118.22,49,118.18,49c-0.08,0-0.12-0.08-0.12-0.25c0-0.18,0.07-0.35,0.2-0.53
			c0.14-0.18,0.31-0.33,0.52-0.47s0.44-0.25,0.69-0.33s0.48-0.13,0.71-0.13c0.28,0,0.53,0.02,0.76,0.07
			c0.23,0.05,0.42,0.14,0.58,0.26s0.29,0.3,0.37,0.52c0.08,0.22,0.13,0.5,0.13,0.84v2.06c0,0.28,0.01,0.48,0.03,0.61
			c0.02,0.12,0.05,0.22,0.09,0.29c0.06,0.11,0.12,0.19,0.19,0.22c0.07,0.04,0.14,0.05,0.21,0.05c0.09,0,0.15-0.01,0.19-0.02
			C122.75,52.19,122.79,52.18,122.83,52.18z M121.01,49.84l-0.39,0.06c-0.21,0.04-0.41,0.09-0.61,0.14s-0.37,0.13-0.53,0.23
			c-0.15,0.1-0.28,0.23-0.37,0.38c-0.09,0.15-0.14,0.34-0.14,0.56c0,0.3,0.08,0.54,0.24,0.7s0.35,0.24,0.59,0.24
			c0.15,0,0.3-0.03,0.45-0.1c0.15-0.07,0.28-0.16,0.39-0.29c0.11-0.12,0.2-0.27,0.27-0.44s0.1-0.35,0.1-0.55V49.84z"/>
		<path class="st0" d="M126.74,48.78c-0.06,0-0.11-0.01-0.14-0.04c-0.03-0.03-0.05-0.06-0.05-0.09c-0.06-0.33-0.19-0.56-0.39-0.7
			c-0.2-0.14-0.46-0.21-0.76-0.21c-0.23,0-0.44,0.07-0.62,0.2s-0.27,0.31-0.27,0.55c0,0.21,0.08,0.38,0.25,0.52s0.46,0.28,0.89,0.41
			c0.23,0.07,0.45,0.15,0.64,0.24c0.2,0.09,0.36,0.19,0.5,0.32c0.14,0.12,0.25,0.28,0.33,0.46s0.12,0.39,0.12,0.64
			c0,0.21-0.04,0.41-0.11,0.6c-0.08,0.19-0.19,0.36-0.35,0.5c-0.16,0.14-0.35,0.26-0.59,0.35s-0.52,0.13-0.85,0.13
			c-0.26,0-0.54-0.03-0.86-0.09c-0.32-0.06-0.6-0.16-0.86-0.31c-0.02-0.21-0.03-0.43-0.04-0.65c-0.01-0.23-0.02-0.46-0.02-0.69h0.12
			c0.08,0,0.15,0.01,0.2,0.04c0.06,0.03,0.09,0.07,0.1,0.14c0.03,0.34,0.16,0.61,0.39,0.81c0.23,0.2,0.55,0.31,0.95,0.31
			c0.33,0,0.58-0.07,0.76-0.22c0.18-0.15,0.26-0.35,0.26-0.61c0-0.26-0.1-0.47-0.29-0.61c-0.19-0.14-0.48-0.27-0.85-0.38
			c-0.47-0.14-0.84-0.33-1.11-0.56c-0.27-0.23-0.4-0.57-0.4-1.02c0-0.21,0.04-0.4,0.12-0.59c0.08-0.18,0.19-0.34,0.34-0.48
			c0.14-0.14,0.32-0.24,0.53-0.32s0.44-0.12,0.7-0.12c0.32,0,0.62,0.04,0.91,0.13s0.51,0.17,0.67,0.27
			c0.01,0.06,0.02,0.14,0.02,0.23s0.01,0.19,0.02,0.29c0,0.1,0.01,0.2,0.01,0.3c0,0.1,0.01,0.19,0.01,0.27L126.74,48.78z"/>
	</g>
	<g>
		<path class="st0" d="M44.99,38.41L57.37,7.59h3.08l12.38,30.82h-3.36l-3.73-9.48H51.89l-3.73,9.48H44.99z M52.95,26.26h11.73
			l-4.23-10.81l-1.61-4.78l-1.61,4.78L52.95,26.26z"/>
		<path class="st0" d="M76.36,46.97V16.33h3.04v5.8c0.74-3.45,3.13-6.35,7.36-6.35c5.75,0,9.2,4.6,9.2,11.55
			c0,6.99-3.45,11.55-9.2,11.55c-4.23,0-6.62-2.9-7.36-6.3v14.4H76.36z M85.84,36.29c4,0,7.04-2.76,7.04-8.97
			c0-6.21-3.04-8.97-7.04-8.97c-4.46,0-6.44,3.22-6.44,6.9v4.14C79.4,33.07,81.38,36.29,85.84,36.29z"/>
		<path class="st0" d="M101.11,12.37V7.59h3.04v4.78H101.11z M101.11,38.41V16.33h3.04v22.08H101.11z"/>
		<path class="st0" d="M108.98,32.52l2.25-1.7c0.69,2.99,3.45,5.47,7.91,5.47c2.94,0,4.88-1.2,4.88-3.5c0-2.3-1.98-3.13-4.97-3.82
			l-2.99-0.69c-3.17-0.78-6.44-2.25-6.44-6.21c0-3.82,3.04-6.21,7.59-6.21c4.69,0,7.78,2.35,8.88,5.47l-2.3,1.7
			c-1.01-2.99-3.31-4.65-6.76-4.65c-2.67,0-4.55,1.24-4.55,3.54s1.66,3.13,4.88,3.91l2.94,0.74c4.6,1.15,6.44,3.04,6.44,6.16
			c0,4.23-3.59,6.12-7.68,6.12C114.54,38.87,110.31,36.84,108.98,32.52z"/>
	</g>
</g>
</svg>
